<?xml version="1.0" encoding="UTF-8" standalone="no"?>
<!-- Created with Bouml (http://bouml.free.fr/) -->
<!DOCTYPE svg PUBLIC "-//W3C//DTD SVG 1.1//EN" "http://www.w3.org/Graphics/SVG/1.1/DTD/svg11.dtd">
<svg width="796" height="644" version="1.1" xmlns="http://www.w3.org/2000/svg">
<g>
	<rect fill="#808080" stroke="none" stroke-opacity="1" x="154" y="268" width="3" height="33" />
	<rect fill="#808080" stroke="none" stroke-opacity="1" x="98" y="298" width="59" height="3" />
	<rect fill="#ffffc0" stroke="black" stroke-width="1" stroke-opacity="1" x="94" y="264" width="60" height="34" />
	<text font-family="Helvetica" font-size="10" fill="#000000" xml:space="preserve" font-weight="bold" text-anchor="middle" x="124" y="277">ItemBrick</text>
	<line stroke="black" stroke-opacity="1" x1="94" y1="282" x2="154" y2="282" />
	<line stroke="black" stroke-opacity="1" x1="94" y1="290" x2="154" y2="290" />
</g>
<g>
	<rect fill="#808080" stroke="none" stroke-opacity="1" x="481" y="350" width="3" height="33" />
	<rect fill="#808080" stroke="none" stroke-opacity="1" x="413" y="380" width="71" height="3" />
	<rect fill="#ffffc0" stroke="black" stroke-width="1" stroke-opacity="1" x="409" y="346" width="72" height="34" />
	<text font-family="Helvetica" font-size="10" fill="#000000" xml:space="preserve" font-weight="bold" font-style="italic" text-anchor="middle" x="445" y="359">Destroyable</text>
	<line stroke="black" stroke-opacity="1" x1="409" y1="364" x2="481" y2="364" />
	<line stroke="black" stroke-opacity="1" x1="409" y1="372" x2="481" y2="372" />
</g>
<g>
	<rect fill="#808080" stroke="none" stroke-opacity="1" x="510" y="414" width="3" height="59" />
	<rect fill="#808080" stroke="none" stroke-opacity="1" x="430" y="470" width="83" height="3" />
	<rect fill="#ffffc0" stroke="black" stroke-width="1" stroke-opacity="1" x="426" y="410" width="84" height="60" />
	<text font-family="Helvetica" font-size="10" fill="#000000" xml:space="preserve" font-weight="bold" text-anchor="middle" x="468" y="423">Bomb</text>
	<line stroke="black" stroke-opacity="1" x1="426" y1="428" x2="510" y2="428" />
	<text font-family="Helvetica" font-size="10" fill="#000000" xml:space="preserve" x="430" y="441">fireSize</text>
	<text font-family="Helvetica" font-size="10" fill="#000000" xml:space="preserve" text-decoration="underline" x="430" y="457">maxCountdown</text>
	<line stroke="black" stroke-opacity="1" x1="426" y1="462" x2="510" y2="462" />
</g>
<g>
	<rect fill="#808080" stroke="none" stroke-opacity="1" x="683" y="379" width="3" height="75" />
	<rect fill="#808080" stroke="none" stroke-opacity="1" x="603" y="451" width="83" height="3" />
	<rect fill="#ffffc0" stroke="black" stroke-width="1" stroke-opacity="1" x="599" y="375" width="84" height="76" />
	<text font-family="Helvetica" font-size="10" fill="#000000" xml:space="preserve" font-weight="bold" text-anchor="middle" x="641" y="388">Fire</text>
	<line stroke="black" stroke-opacity="1" x1="599" y1="393" x2="683" y2="393" />
	<text font-family="Helvetica" font-size="10" fill="#000000" xml:space="preserve" x="603" y="406">countdown</text>
	<text font-family="Helvetica" font-size="10" fill="#000000" xml:space="preserve" x="603" y="422">fireSize</text>
	<text font-family="Helvetica" font-size="10" fill="#000000" xml:space="preserve" text-decoration="underline" x="603" y="438">maxCountdown</text>
	<line stroke="black" stroke-opacity="1" x1="599" y1="443" x2="683" y2="443" />
</g>
<g>
	<rect fill="#808080" stroke="none" stroke-opacity="1" x="780" y="503" width="3" height="33" />
	<rect fill="#808080" stroke="none" stroke-opacity="1" x="736" y="533" width="47" height="3" />
	<rect fill="#ffffc0" stroke="black" stroke-width="1" stroke-opacity="1" x="732" y="499" width="48" height="34" />
	<text font-family="Helvetica" font-size="10" fill="#000000" xml:space="preserve" font-weight="bold" text-anchor="middle" x="756" y="512">EndFire</text>
	<line stroke="black" stroke-opacity="1" x1="732" y1="517" x2="780" y2="517" />
	<line stroke="black" stroke-opacity="1" x1="732" y1="525" x2="780" y2="525" />
</g>
<g>
	<rect fill="#808080" stroke="none" stroke-opacity="1" x="363" y="514" width="3" height="117" />
	<rect fill="#808080" stroke="none" stroke-opacity="1" x="299" y="628" width="67" height="3" />
	<rect fill="#ffffc0" stroke="black" stroke-width="1" stroke-opacity="1" x="295" y="510" width="68" height="118" />
	<text font-family="Helvetica" font-size="10" fill="#000000" xml:space="preserve" font-weight="bold" text-anchor="middle" x="329" y="523">Player</text>
	<line stroke="black" stroke-opacity="1" x1="295" y1="528" x2="363" y2="528" />
	<text font-family="Helvetica" font-size="10" fill="#000000" xml:space="preserve" x="299" y="541">bombList</text>
	<text font-family="Helvetica" font-size="10" fill="#000000" xml:space="preserve" x="299" y="557">fireSize</text>
	<text font-family="Helvetica" font-size="10" fill="#000000" xml:space="preserve" x="299" y="573">maxBomb</text>
	<line stroke="black" stroke-opacity="1" x1="295" y1="578" x2="363" y2="578" />
	<text font-family="Helvetica" font-size="10" fill="#000000" xml:space="preserve" x="299" y="591">die()</text>
	<text font-family="Helvetica" font-size="10" fill="#000000" xml:space="preserve" x="299" y="607">walk()</text>
	<text font-family="Helvetica" font-size="10" fill="#000000" xml:space="preserve" x="299" y="623">placeBomb()</text>
</g>
<g>
	<rect fill="#808080" stroke="none" stroke-opacity="1" x="559" y="508" width="3" height="33" />
	<rect fill="#808080" stroke="none" stroke-opacity="1" x="507" y="538" width="55" height="3" />
	<rect fill="#ffffc0" stroke="black" stroke-width="1" stroke-opacity="1" x="503" y="504" width="56" height="34" />
	<text font-family="Helvetica" font-size="10" fill="#000000" xml:space="preserve" font-weight="bold" text-anchor="middle" x="531" y="517">CoreFire</text>
	<line stroke="black" stroke-opacity="1" x1="503" y1="522" x2="559" y2="522" />
	<line stroke="black" stroke-opacity="1" x1="503" y1="530" x2="559" y2="530" />
</g>
<g>
	<rect fill="#808080" stroke="none" stroke-opacity="1" x="361" y="79" width="3" height="33" />
	<rect fill="#808080" stroke="none" stroke-opacity="1" x="325" y="109" width="39" height="3" />
	<rect fill="#ffffc0" stroke="black" stroke-width="1" stroke-opacity="1" x="321" y="75" width="40" height="34" />
	<text font-family="Helvetica" font-size="10" fill="#000000" xml:space="preserve" font-weight="bold" text-anchor="middle" x="341" y="88">Wall</text>
	<line stroke="black" stroke-opacity="1" x1="321" y1="93" x2="361" y2="93" />
	<line stroke="black" stroke-opacity="1" x1="321" y1="101" x2="361" y2="101" />
</g>
<g>
	<rect fill="#808080" stroke="none" stroke-opacity="1" x="348" y="286" width="3" height="33" />
	<rect fill="#808080" stroke="none" stroke-opacity="1" x="282" y="316" width="69" height="3" />
	<rect fill="#ffffc0" stroke="black" stroke-width="1" stroke-opacity="1" x="278" y="282" width="70" height="34" />
	<text font-family="Helvetica" font-size="10" fill="#000000" xml:space="preserve" font-weight="bold" text-anchor="middle" x="313" y="295">EmptyBrick</text>
	<line stroke="black" stroke-opacity="1" x1="278" y1="300" x2="348" y2="300" />
	<line stroke="black" stroke-opacity="1" x1="278" y1="308" x2="348" y2="308" />
</g>
<g>
	<rect fill="#808080" stroke="none" stroke-opacity="1" x="430" y="191" width="3" height="33" />
	<rect fill="#808080" stroke="none" stroke-opacity="1" x="386" y="221" width="47" height="3" />
	<rect fill="#ffffc0" stroke="black" stroke-width="1" stroke-opacity="1" x="382" y="187" width="48" height="34" />
	<text font-family="Helvetica" font-size="10" fill="#000000" xml:space="preserve" font-weight="bold" text-anchor="middle" x="406" y="200">Ground</text>
	<line stroke="black" stroke-opacity="1" x1="382" y1="205" x2="430" y2="205" />
	<line stroke="black" stroke-opacity="1" x1="382" y1="213" x2="430" y2="213" />
</g>
<g>
	<rect fill="#808080" stroke="none" stroke-opacity="1" x="265" y="167" width="3" height="53" />
	<rect fill="#808080" stroke="none" stroke-opacity="1" x="199" y="217" width="69" height="3" />
	<rect fill="#ffffc0" stroke="black" stroke-width="1" stroke-opacity="1" x="195" y="163" width="70" height="54" />
	<text font-family="Helvetica" font-size="10" fill="#000000" xml:space="preserve" font-weight="bold" text-anchor="middle" x="230" y="176">Playground</text>
	<line stroke="black" stroke-opacity="1" x1="195" y1="181" x2="265" y2="181" />
	<text font-family="Helvetica" font-size="10" fill="#000000" xml:space="preserve" x="199" y="194">map</text>
	<line stroke="black" stroke-opacity="1" x1="195" y1="199" x2="265" y2="199" />
	<text font-family="Helvetica" font-size="10" fill="#000000" xml:space="preserve" x="199" y="212">initialize()</text>
</g>
<g>
	<rect fill="#808080" stroke="none" stroke-opacity="1" x="207" y="529" width="3" height="33" />
	<rect fill="#808080" stroke="none" stroke-opacity="1" x="171" y="559" width="39" height="3" />
	<rect fill="#ffffc0" stroke="black" stroke-width="1" stroke-opacity="1" x="167" y="525" width="40" height="34" />
	<text font-family="Helvetica" font-size="10" fill="#000000" xml:space="preserve" font-weight="bold" text-anchor="middle" x="187" y="538">Item</text>
	<line stroke="black" stroke-opacity="1" x1="167" y1="543" x2="207" y2="543" />
	<line stroke="black" stroke-opacity="1" x1="167" y1="551" x2="207" y2="551" />
</g>
<g>
	<rect fill="#808080" stroke="none" stroke-opacity="1" x="681" y="508" width="3" height="33" />
	<rect fill="#808080" stroke="none" stroke-opacity="1" x="603" y="538" width="81" height="3" />
	<rect fill="#ffffc0" stroke="black" stroke-width="1" stroke-opacity="1" x="599" y="504" width="82" height="34" />
	<text font-family="Helvetica" font-size="10" fill="#000000" xml:space="preserve" font-weight="bold" text-anchor="middle" x="640" y="517">ExtensionFire</text>
	<line stroke="black" stroke-opacity="1" x1="599" y1="522" x2="681" y2="522" />
	<line stroke="black" stroke-opacity="1" x1="599" y1="530" x2="681" y2="530" />
</g>
<g>
	<line stroke="black" stroke-opacity="1" x1="263" y1="162" x2="320" y2="112" />
	<polygon fill="#000000" stroke="black" stroke-opacity="1" points="263,162 263,153 272,154 271,162" />
</g>
<g>
	<line stroke="black" stroke-opacity="1" x1="195" y1="221" x2="146" y2="263" />
	<polygon fill="#000000" stroke="black" stroke-opacity="1" points="195,221 194,229 185,228 186,220" />
</g>
<g>
	<line stroke="black" stroke-opacity="1" x1="253" y1="221" x2="299" y2="281" />
	<polygon fill="#000000" stroke="black" stroke-opacity="1" points="253,221 261,222 260,230 251,229" />
</g>
<g>
	<line stroke="black" stroke-opacity="1" x1="269" y1="194" x2="381" y2="203" />
	<polygon fill="#000000" stroke="black" stroke-opacity="1" points="269,194 275,188 280,194 274,200" />
</g>
<g>
	<line stroke="black" stroke-opacity="1" x1="642" y1="455" x2="642" y2="503" />
	<polygon fill="#000000" stroke="black" stroke-opacity="1" points="642,455 648,461 642,467 636,461" />
</g>
<g>
	<line stroke="black" stroke-opacity="1" x1="687" y1="455" x2="735" y2="498" />
	<polygon fill="#000000" stroke="black" stroke-opacity="1" points="687,455 695,454 695,463 687,463" />
</g>
<g>
	<line stroke="black" stroke-opacity="1" x1="599" y1="455" x2="550" y2="503" />
	<polygon fill="#000000" stroke="black" stroke-opacity="1" points="599,455 598,463 590,463 590,454" />
</g>
<g>
	<line stroke="black" stroke-opacity="1" x1="514" y1="434" x2="598" y2="420" />
</g>
<g>
	<line stroke="black" stroke-opacity="1" x1="598" y1="402" x2="485" y2="374" />
</g>
<g>
	<line stroke="black" stroke-opacity="1" x1="598" y1="436" x2="367" y2="551" />
</g>
<g>
	<line stroke="black" stroke-opacity="1" x1="367" y1="535" x2="431" y2="474" />
</g>
<g>
	<line stroke="black" stroke-opacity="1" x1="211" y1="547" x2="294" y2="563" />
</g>
<g>
	<line stroke="black" stroke-opacity="1" x1="129" y1="302" x2="184" y2="524" />
</g>
<g>
	<line stroke="black" stroke-opacity="1" x1="239" y1="221" x2="313" y2="509" />
	<polygon fill="#000000" stroke="black" stroke-opacity="1" points="239,221 246,225 241,232 234,228" />
</g>
<g>
	<text font-family="Helvetica" font-size="10" fill="#000000" xml:space="preserve" x="298" y="122">30</text>
</g>
<g>
	<text font-family="Helvetica" font-size="10" fill="#000000" xml:space="preserve" x="156" y="273">30</text>
</g>
<g>
	<text font-family="Helvetica" font-size="10" fill="#000000" xml:space="preserve" x="272" y="274">43</text>
</g>
<g>
	<text font-family="Helvetica" font-size="10" fill="#000000" xml:space="preserve" x="359" y="221">40</text>
</g>
<g>
	<text font-family="Helvetica" font-size="10" fill="#000000" xml:space="preserve" x="616" y="496">1..*</text>
</g>
<g>
	<text font-family="Helvetica" font-size="10" fill="#000000" xml:space="preserve" x="626" y="473">1</text>
</g>
<g>
	<text font-family="Helvetica" font-size="10" fill="#000000" xml:space="preserve" x="707" y="524">1..4</text>
</g>
<g>
	<text font-family="Helvetica" font-size="10" fill="#000000" xml:space="preserve" x="697" y="481">1</text>
</g>
<g>
	<text font-family="Helvetica" font-size="10" fill="#000000" xml:space="preserve" x="560" y="512">1</text>
</g>
<g>
	<text font-family="Helvetica" font-size="10" fill="#000000" xml:space="preserve" x="583" y="464">1</text>
</g>
<g>
	<text font-family="Helvetica" font-size="10" fill="#000000" xml:space="preserve" x="296" y="502">2</text>
</g>
<g>
	<text font-family="Helvetica" font-size="10" fill="#000000" xml:space="preserve" x="224" y="239">1</text>
</g>
</svg>
