<?xml version="1.0" encoding="UTF-8" standalone="no"?>
<!-- Created with Bouml (http://bouml.free.fr/) -->
<!DOCTYPE svg PUBLIC "-//W3C//DTD SVG 1.1//EN" "http://www.w3.org/Graphics/SVG/1.1/DTD/svg11.dtd">
<svg width="414" height="352" version="1.1" xmlns="http://www.w3.org/2000/svg">
<g>
	<ellipse fill="none" stroke="black" stroke-width="1" stroke-opacity="1" cx="137" cy="206" rx="6" ry="6" />
	<line stroke="black" stroke-opacity="1" x1="126" y1="218" x2="148" y2="218" />
	<line stroke="black" stroke-opacity="1" x1="137" y1="213" x2="137" y2="228" />
	<line stroke="black" stroke-opacity="1" x1="137" y1="228" x2="127" y2="239" />
	<line stroke="black" stroke-opacity="1" x1="137" y1="228" x2="147" y2="239" />
	<text font-family="Helvetica" font-size="10" fill="#000000" xml:space="preserve" text-anchor="middle" x="138" y="253">Player</text>
</g>
<g>
	<ellipse fill="#808080" stroke="none" cx="371" cy="113" rx="31" ry="15" />
	<ellipse fill="#ffffc0" stroke="black" stroke-width="1" stroke-opacity="1" cx="368" cy="110" rx="31" ry="15" />
</g>
<g>
	<ellipse fill="#808080" stroke="none" cx="372" cy="216" rx="31" ry="15" />
	<ellipse fill="#ffffc0" stroke="black" stroke-width="1" stroke-opacity="1" cx="369" cy="213" rx="31" ry="15" />
</g>
<g>
	<ellipse fill="#808080" stroke="none" cx="373" cy="315" rx="31" ry="15" />
	<ellipse fill="#ffffc0" stroke="black" stroke-width="1" stroke-opacity="1" cx="370" cy="312" rx="31" ry="15" />
</g>
<g>
	<text font-family="Helvetica" font-size="10" fill="#000000" xml:space="preserve" x="339" y="138">Spiel starten</text>
</g>
<g>
	<text font-family="Helvetica" font-size="10" fill="#000000" xml:space="preserve" x="352" y="241">Spielen</text>
</g>
<g>
	<text font-family="Helvetica" font-size="10" fill="#000000" xml:space="preserve" x="337" y="340">Spiel beenden</text>
</g>
<g>
	<line stroke="black" stroke-opacity="1" x1="336" y1="124" x2="327" y2="121" />
	<line stroke="black" stroke-opacity="1" x1="336" y1="124" x2="333" y2="132" />
	<line stroke="black" stroke-opacity="1" x1="158" y1="219" x2="336" y2="124" />
</g>
<g>
	<line stroke="black" stroke-opacity="1" x1="337" y1="214" x2="330" y2="208" />
	<line stroke="black" stroke-opacity="1" x1="337" y1="214" x2="331" y2="220" />
	<line stroke="black" stroke-opacity="1" x1="158" y1="228" x2="337" y2="214" />
</g>
<g>
	<line stroke="black" stroke-opacity="1" x1="338" y1="299" x2="334" y2="291" />
	<line stroke="black" stroke-opacity="1" x1="338" y1="299" x2="330" y2="302" />
	<line stroke="black" stroke-opacity="1" x1="158" y1="237" x2="338" y2="299" />
</g>
</svg>
