<?xml version="1.0" encoding="UTF-8" standalone="no"?>
<!-- Created with Bouml (http://bouml.free.fr/) -->
<!DOCTYPE svg PUBLIC "-//W3C//DTD SVG 1.1//EN" "http://www.w3.org/Graphics/SVG/1.1/DTD/svg11.dtd">
<svg width="827" height="431" version="1.1" xmlns="http://www.w3.org/2000/svg">
<g>
	<rect fill="#808080" stroke="none" stroke-opacity="1" x="506" y="95" width="3" height="101" />
	<rect fill="#808080" stroke="none" stroke-opacity="1" x="460" y="193" width="49" height="3" />
	<rect fill="#ffffc0" stroke="black" stroke-width="1" stroke-opacity="1" x="456" y="91" width="50" height="102" />
	<text font-family="Helvetica" font-size="10" fill="#000000" xml:space="preserve" font-weight="bold" font-style="italic" text-anchor="middle" x="481" y="104">Field</text>
	<line stroke="black" stroke-opacity="1" x1="456" y1="109" x2="506" y2="109" />
	<text font-family="Helvetica" font-size="10" fill="#000000" xml:space="preserve" x="460" y="122">x</text>
	<text font-family="Helvetica" font-size="10" fill="#000000" xml:space="preserve" x="460" y="138">y</text>
	<text font-family="Helvetica" font-size="10" fill="#000000" xml:space="preserve" x="460" y="154">Image</text>
	<line stroke="black" stroke-opacity="1" x1="456" y1="159" x2="506" y2="159" />
	<text font-family="Helvetica" font-size="10" fill="#000000" xml:space="preserve" font-style="italic" x="460" y="172">onStep()</text>
	<text font-family="Helvetica" font-size="10" fill="#000000" xml:space="preserve" font-style="italic" x="460" y="188">onBurn()</text>
</g>
<g>
	<rect fill="#808080" stroke="none" stroke-opacity="1" x="348" y="174" width="3" height="33" />
	<rect fill="#808080" stroke="none" stroke-opacity="1" x="294" y="204" width="57" height="3" />
	<rect fill="#ffffc0" stroke="black" stroke-width="1" stroke-opacity="1" x="290" y="170" width="58" height="34" />
	<text font-family="Helvetica" font-size="10" fill="#000000" xml:space="preserve" font-weight="bold" text-anchor="middle" x="319" y="183">HardField</text>
	<line stroke="black" stroke-opacity="1" x1="290" y1="188" x2="348" y2="188" />
	<line stroke="black" stroke-opacity="1" x1="290" y1="196" x2="348" y2="196" />
</g>
<g>
	<rect fill="#808080" stroke="none" stroke-opacity="1" x="677" y="187" width="3" height="33" />
	<rect fill="#808080" stroke="none" stroke-opacity="1" x="625" y="217" width="55" height="3" />
	<rect fill="#ffffc0" stroke="black" stroke-width="1" stroke-opacity="1" x="621" y="183" width="56" height="34" />
	<text font-family="Helvetica" font-size="10" fill="#000000" xml:space="preserve" font-weight="bold" text-anchor="middle" x="649" y="196">SoftField</text>
	<line stroke="black" stroke-opacity="1" x1="621" y1="201" x2="677" y2="201" />
	<line stroke="black" stroke-opacity="1" x1="621" y1="209" x2="677" y2="209" />
</g>
<g>
	<rect fill="#808080" stroke="none" stroke-opacity="1" x="304" y="241" width="3" height="33" />
	<rect fill="#808080" stroke="none" stroke-opacity="1" x="268" y="271" width="39" height="3" />
	<rect fill="#ffffc0" stroke="black" stroke-width="1" stroke-opacity="1" x="264" y="237" width="40" height="34" />
	<text font-family="Helvetica" font-size="10" fill="#000000" xml:space="preserve" font-weight="bold" text-anchor="middle" x="284" y="250">Wall</text>
	<line stroke="black" stroke-opacity="1" x1="264" y1="255" x2="304" y2="255" />
	<line stroke="black" stroke-opacity="1" x1="264" y1="263" x2="304" y2="263" />
</g>
<g>
	<rect fill="#808080" stroke="none" stroke-opacity="1" x="385" y="241" width="3" height="33" />
	<rect fill="#808080" stroke="none" stroke-opacity="1" x="317" y="271" width="71" height="3" />
	<rect fill="#ffffc0" stroke="black" stroke-width="1" stroke-opacity="1" x="313" y="237" width="72" height="34" />
	<text font-family="Helvetica" font-size="10" fill="#000000" xml:space="preserve" font-weight="bold" font-style="italic" text-anchor="middle" x="349" y="250">Destroyable</text>
	<line stroke="black" stroke-opacity="1" x1="313" y1="255" x2="385" y2="255" />
	<line stroke="black" stroke-opacity="1" x1="313" y1="263" x2="385" y2="263" />
</g>
<g>
	<rect fill="#808080" stroke="none" stroke-opacity="1" x="673" y="254" width="3" height="33" />
	<rect fill="#808080" stroke="none" stroke-opacity="1" x="629" y="284" width="47" height="3" />
	<rect fill="#ffffc0" stroke="black" stroke-width="1" stroke-opacity="1" x="625" y="250" width="48" height="34" />
	<text font-family="Helvetica" font-size="10" fill="#000000" xml:space="preserve" font-weight="bold" text-anchor="middle" x="649" y="263">Ground</text>
	<line stroke="black" stroke-opacity="1" x1="625" y1="268" x2="673" y2="268" />
	<line stroke="black" stroke-opacity="1" x1="625" y1="276" x2="673" y2="276" />
</g>
<g>
	<rect fill="#808080" stroke="none" stroke-opacity="1" x="601" y="250" width="3" height="75" />
	<rect fill="#808080" stroke="none" stroke-opacity="1" x="521" y="322" width="83" height="3" />
	<rect fill="#ffffc0" stroke="black" stroke-width="1" stroke-opacity="1" x="517" y="246" width="84" height="76" />
	<text font-family="Helvetica" font-size="10" fill="#000000" xml:space="preserve" font-weight="bold" text-anchor="middle" x="559" y="259">Fire</text>
	<line stroke="black" stroke-opacity="1" x1="517" y1="264" x2="601" y2="264" />
	<text font-family="Helvetica" font-size="10" fill="#000000" xml:space="preserve" x="521" y="277">countdown</text>
	<text font-family="Helvetica" font-size="10" fill="#000000" xml:space="preserve" x="521" y="293">fireSize</text>
	<text font-family="Helvetica" font-size="10" fill="#000000" xml:space="preserve" text-decoration="underline" x="521" y="309">maxCountdown</text>
	<line stroke="black" stroke-opacity="1" x1="517" y1="314" x2="601" y2="314" />
</g>
<g>
	<rect fill="#808080" stroke="none" stroke-opacity="1" x="760" y="254" width="3" height="33" />
	<rect fill="#808080" stroke="none" stroke-opacity="1" x="724" y="284" width="39" height="3" />
	<rect fill="#ffffc0" stroke="black" stroke-width="1" stroke-opacity="1" x="720" y="250" width="40" height="34" />
	<text font-family="Helvetica" font-size="10" fill="#000000" xml:space="preserve" font-weight="bold" text-anchor="middle" x="740" y="263">Item</text>
	<line stroke="black" stroke-opacity="1" x1="720" y1="268" x2="760" y2="268" />
	<line stroke="black" stroke-opacity="1" x1="720" y1="276" x2="760" y2="276" />
</g>
<g>
	<rect fill="#808080" stroke="none" stroke-opacity="1" x="493" y="350" width="3" height="33" />
	<rect fill="#808080" stroke="none" stroke-opacity="1" x="441" y="380" width="55" height="3" />
	<rect fill="#ffffc0" stroke="black" stroke-width="1" stroke-opacity="1" x="437" y="346" width="56" height="34" />
	<text font-family="Helvetica" font-size="10" fill="#000000" xml:space="preserve" font-weight="bold" text-anchor="middle" x="465" y="359">CoreFire</text>
	<line stroke="black" stroke-opacity="1" x1="437" y1="364" x2="493" y2="364" />
	<line stroke="black" stroke-opacity="1" x1="437" y1="372" x2="493" y2="372" />
</g>
<g>
	<rect fill="#808080" stroke="none" stroke-opacity="1" x="644" y="350" width="3" height="33" />
	<rect fill="#808080" stroke="none" stroke-opacity="1" x="600" y="380" width="47" height="3" />
	<rect fill="#ffffc0" stroke="black" stroke-width="1" stroke-opacity="1" x="596" y="346" width="48" height="34" />
	<text font-family="Helvetica" font-size="10" fill="#000000" xml:space="preserve" font-weight="bold" text-anchor="middle" x="620" y="359">EndFire</text>
	<line stroke="black" stroke-opacity="1" x1="596" y1="364" x2="644" y2="364" />
	<line stroke="black" stroke-opacity="1" x1="596" y1="372" x2="644" y2="372" />
</g>
<g>
	<rect fill="#808080" stroke="none" stroke-opacity="1" x="586" y="350" width="3" height="33" />
	<rect fill="#808080" stroke="none" stroke-opacity="1" x="508" y="380" width="81" height="3" />
	<rect fill="#ffffc0" stroke="black" stroke-width="1" stroke-opacity="1" x="504" y="346" width="82" height="34" />
	<text font-family="Helvetica" font-size="10" fill="#000000" xml:space="preserve" font-weight="bold" text-anchor="middle" x="545" y="359">ExtensionFire</text>
	<line stroke="black" stroke-opacity="1" x1="504" y1="364" x2="586" y2="364" />
	<line stroke="black" stroke-opacity="1" x1="504" y1="372" x2="586" y2="372" />
</g>
<g>
	<rect fill="#808080" stroke="none" stroke-opacity="1" x="298" y="318" width="3" height="33" />
	<rect fill="#808080" stroke="none" stroke-opacity="1" x="262" y="348" width="39" height="3" />
	<rect fill="#ffffc0" stroke="black" stroke-width="1" stroke-opacity="1" x="258" y="314" width="40" height="34" />
	<text font-family="Helvetica" font-size="10" fill="#000000" xml:space="preserve" font-weight="bold" text-anchor="middle" x="278" y="327">Brick</text>
	<line stroke="black" stroke-opacity="1" x1="258" y1="332" x2="298" y2="332" />
	<line stroke="black" stroke-opacity="1" x1="258" y1="340" x2="298" y2="340" />
</g>
<g>
	<rect fill="#808080" stroke="none" stroke-opacity="1" x="269" y="384" width="3" height="33" />
	<rect fill="#808080" stroke="none" stroke-opacity="1" x="213" y="414" width="59" height="3" />
	<rect fill="#ffffc0" stroke="black" stroke-width="1" stroke-opacity="1" x="209" y="380" width="60" height="34" />
	<text font-family="Helvetica" font-size="10" fill="#000000" xml:space="preserve" font-weight="bold" text-anchor="middle" x="239" y="393">ItemBrick</text>
	<line stroke="black" stroke-opacity="1" x1="209" y1="398" x2="269" y2="398" />
	<line stroke="black" stroke-opacity="1" x1="209" y1="406" x2="269" y2="406" />
</g>
<g>
	<rect fill="#808080" stroke="none" stroke-opacity="1" x="733" y="319" width="3" height="33" />
	<rect fill="#808080" stroke="none" stroke-opacity="1" x="675" y="349" width="61" height="3" />
	<rect fill="#ffffc0" stroke="black" stroke-width="1" stroke-opacity="1" x="671" y="315" width="62" height="34" />
	<text font-family="Helvetica" font-size="10" fill="#000000" xml:space="preserve" font-weight="bold" text-anchor="middle" x="702" y="328">FlashItem</text>
	<line stroke="black" stroke-opacity="1" x1="671" y1="333" x2="733" y2="333" />
	<line stroke="black" stroke-opacity="1" x1="671" y1="341" x2="733" y2="341" />
</g>
<g>
	<rect fill="#808080" stroke="none" stroke-opacity="1" x="361" y="385" width="3" height="33" />
	<rect fill="#808080" stroke="none" stroke-opacity="1" x="295" y="415" width="69" height="3" />
	<rect fill="#ffffc0" stroke="black" stroke-width="1" stroke-opacity="1" x="291" y="381" width="70" height="34" />
	<text font-family="Helvetica" font-size="10" fill="#000000" xml:space="preserve" font-weight="bold" text-anchor="middle" x="326" y="394">EmptyBrick</text>
	<line stroke="black" stroke-opacity="1" x1="291" y1="399" x2="361" y2="399" />
	<line stroke="black" stroke-opacity="1" x1="291" y1="407" x2="361" y2="407" />
</g>
<g>
	<rect fill="#808080" stroke="none" stroke-opacity="1" x="811" y="319" width="3" height="33" />
	<rect fill="#808080" stroke="none" stroke-opacity="1" x="751" y="349" width="63" height="3" />
	<rect fill="#ffffc0" stroke="black" stroke-width="1" stroke-opacity="1" x="747" y="315" width="64" height="34" />
	<text font-family="Helvetica" font-size="10" fill="#000000" xml:space="preserve" font-weight="bold" text-anchor="middle" x="779" y="328">BombItem</text>
	<line stroke="black" stroke-opacity="1" x1="747" y1="333" x2="811" y2="333" />
	<line stroke="black" stroke-opacity="1" x1="747" y1="341" x2="811" y2="341" />
</g>
<g>
	<rect fill="#808080" stroke="none" stroke-opacity="1" x="418" y="310" width="3" height="59" />
	<rect fill="#808080" stroke="none" stroke-opacity="1" x="338" y="366" width="83" height="3" />
	<rect fill="#ffffc0" stroke="black" stroke-width="1" stroke-opacity="1" x="334" y="306" width="84" height="60" />
	<text font-family="Helvetica" font-size="10" fill="#000000" xml:space="preserve" font-weight="bold" text-anchor="middle" x="376" y="319">Bomb</text>
	<line stroke="black" stroke-opacity="1" x1="334" y1="324" x2="418" y2="324" />
	<text font-family="Helvetica" font-size="10" fill="#000000" xml:space="preserve" x="338" y="337">fireSize</text>
	<text font-family="Helvetica" font-size="10" fill="#000000" xml:space="preserve" text-decoration="underline" x="338" y="353">maxCountdown</text>
	<line stroke="black" stroke-opacity="1" x1="334" y1="358" x2="418" y2="358" />
</g>
<g>
	<rect fill="#808080" stroke="none" stroke-opacity="1" x="166" y="91" width="3" height="53" />
	<rect fill="#808080" stroke="none" stroke-opacity="1" x="100" y="141" width="69" height="3" />
	<rect fill="#ffffc0" stroke="black" stroke-width="1" stroke-opacity="1" x="96" y="87" width="70" height="54" />
	<text font-family="Helvetica" font-size="10" fill="#000000" xml:space="preserve" font-weight="bold" text-anchor="middle" x="131" y="100">Playground</text>
	<line stroke="black" stroke-opacity="1" x1="96" y1="105" x2="166" y2="105" />
	<text font-family="Helvetica" font-size="10" fill="#000000" xml:space="preserve" x="100" y="118">map</text>
	<line stroke="black" stroke-opacity="1" x1="96" y1="123" x2="166" y2="123" />
	<text font-family="Helvetica" font-size="10" fill="#000000" xml:space="preserve" x="100" y="136">initialize()</text>
</g>
<g>
	<rect fill="#808080" stroke="none" stroke-opacity="1" x="140" y="201" width="3" height="117" />
	<rect fill="#808080" stroke="none" stroke-opacity="1" x="76" y="315" width="67" height="3" />
	<rect fill="#ffffc0" stroke="black" stroke-width="1" stroke-opacity="1" x="72" y="197" width="68" height="118" />
	<text font-family="Helvetica" font-size="10" fill="#000000" xml:space="preserve" font-weight="bold" text-anchor="middle" x="106" y="210">Player</text>
	<line stroke="black" stroke-opacity="1" x1="72" y1="215" x2="140" y2="215" />
	<text font-family="Helvetica" font-size="10" fill="#000000" xml:space="preserve" x="76" y="228">bombList</text>
	<text font-family="Helvetica" font-size="10" fill="#000000" xml:space="preserve" x="76" y="244">fireSize</text>
	<text font-family="Helvetica" font-size="10" fill="#000000" xml:space="preserve" x="76" y="260">maxBomb</text>
	<line stroke="black" stroke-opacity="1" x1="72" y1="265" x2="140" y2="265" />
	<text font-family="Helvetica" font-size="10" fill="#000000" xml:space="preserve" x="76" y="278">die()</text>
	<text font-family="Helvetica" font-size="10" fill="#000000" xml:space="preserve" x="76" y="294">walk()</text>
	<text font-family="Helvetica" font-size="10" fill="#000000" xml:space="preserve" x="76" y="310">placeBomb()</text>
</g>
<g>
	<line stroke="black" stroke-opacity="1" x1="352" y1="179" x2="449" y2="151" />
	<line stroke="black" stroke-opacity="1" x1="455" y1="150" x2="447" y2="145" />
	<line stroke="black" stroke-opacity="1" x1="455" y1="150" x2="450" y2="157" />
	<line stroke="black" stroke-opacity="1" x1="447" y1="145" x2="450" y2="157" />
</g>
<g>
	<line stroke="black" stroke-opacity="1" x1="620" y1="190" x2="515" y2="153" />
	<line stroke="black" stroke-opacity="1" x1="510" y1="152" x2="513" y2="159" />
	<line stroke="black" stroke-opacity="1" x1="510" y1="152" x2="517" y2="148" />
	<line stroke="black" stroke-opacity="1" x1="513" y1="159" x2="517" y2="148" />
</g>
<g>
	<line stroke="black" stroke-opacity="1" x1="294" y1="236" x2="305" y2="213" />
	<line stroke="black" stroke-opacity="1" x1="308" y1="208" x2="299" y2="210" />
	<line stroke="black" stroke-opacity="1" x1="308" y1="208" x2="310" y2="216" />
	<line stroke="black" stroke-opacity="1" x1="299" y1="210" x2="310" y2="216" />
</g>
<g>
	<line stroke="black" stroke-opacity="1" x1="342" y1="236" x2="330" y2="213" />
	<line stroke="black" stroke-opacity="1" x1="328" y1="208" x2="325" y2="216" />
	<line stroke="black" stroke-opacity="1" x1="328" y1="208" x2="336" y2="210" />
	<line stroke="black" stroke-opacity="1" x1="325" y1="216" x2="336" y2="210" />
</g>
<g>
	<line stroke="black" stroke-opacity="1" x1="603" y1="245" x2="622" y2="225" />
	<line stroke="black" stroke-opacity="1" x1="627" y1="221" x2="618" y2="221" />
	<line stroke="black" stroke-opacity="1" x1="627" y1="221" x2="627" y2="229" />
	<line stroke="black" stroke-opacity="1" x1="618" y1="221" x2="627" y2="229" />
</g>
<g>
	<line stroke="black" stroke-opacity="1" x1="651" y1="249" x2="651" y2="227" />
	<line stroke="black" stroke-opacity="1" x1="651" y1="221" x2="645" y2="227" />
	<line stroke="black" stroke-opacity="1" x1="651" y1="221" x2="657" y2="227" />
	<line stroke="black" stroke-opacity="1" x1="645" y1="227" x2="657" y2="227" />
</g>
<g>
	<line stroke="black" stroke-opacity="1" x1="719" y1="252" x2="682" y2="224" />
	<line stroke="black" stroke-opacity="1" x1="678" y1="221" x2="679" y2="229" />
	<line stroke="black" stroke-opacity="1" x1="678" y1="221" x2="686" y2="219" />
	<line stroke="black" stroke-opacity="1" x1="679" y1="229" x2="686" y2="219" />
</g>
<g>
	<line stroke="black" stroke-opacity="1" x1="295" y1="313" x2="325" y2="279" />
	<line stroke="black" stroke-opacity="1" x1="330" y1="275" x2="321" y2="275" />
	<line stroke="black" stroke-opacity="1" x1="330" y1="275" x2="330" y2="283" />
	<line stroke="black" stroke-opacity="1" x1="321" y1="275" x2="330" y2="283" />
</g>
<g>
	<line stroke="black" stroke-opacity="1" x1="366" y1="305" x2="357" y2="280" />
	<line stroke="black" stroke-opacity="1" x1="356" y1="275" x2="352" y2="282" />
	<line stroke="black" stroke-opacity="1" x1="356" y1="275" x2="363" y2="278" />
	<line stroke="black" stroke-opacity="1" x1="352" y1="282" x2="363" y2="278" />
</g>
<g>
	<line stroke="black" stroke-opacity="1" x1="488" y1="345" x2="511" y2="323" />
	<line stroke="black" stroke-opacity="1" x1="516" y1="320" x2="507" y2="319" />
	<line stroke="black" stroke-opacity="1" x1="516" y1="320" x2="515" y2="328" />
	<line stroke="black" stroke-opacity="1" x1="507" y1="319" x2="515" y2="328" />
</g>
<g>
	<line stroke="black" stroke-opacity="1" x1="549" y1="345" x2="551" y2="331" />
	<line stroke="black" stroke-opacity="1" x1="552" y1="326" x2="545" y2="330" />
	<line stroke="black" stroke-opacity="1" x1="552" y1="326" x2="556" y2="332" />
	<line stroke="black" stroke-opacity="1" x1="545" y1="330" x2="556" y2="332" />
</g>
<g>
	<line stroke="black" stroke-opacity="1" x1="606" y1="345" x2="594" y2="330" />
	<line stroke="black" stroke-opacity="1" x1="591" y1="326" x2="590" y2="334" />
	<line stroke="black" stroke-opacity="1" x1="591" y1="326" x2="599" y2="326" />
	<line stroke="black" stroke-opacity="1" x1="590" y1="334" x2="599" y2="326" />
</g>
<g>
	<line stroke="black" stroke-opacity="1" x1="251" y1="379" x2="263" y2="357" />
	<line stroke="black" stroke-opacity="1" x1="266" y1="352" x2="257" y2="354" />
	<line stroke="black" stroke-opacity="1" x1="266" y1="352" x2="268" y2="360" />
	<line stroke="black" stroke-opacity="1" x1="257" y1="354" x2="268" y2="360" />
</g>
<g>
	<line stroke="black" stroke-opacity="1" x1="314" y1="380" x2="296" y2="356" />
	<line stroke="black" stroke-opacity="1" x1="293" y1="352" x2="291" y2="360" />
	<line stroke="black" stroke-opacity="1" x1="293" y1="352" x2="301" y2="353" />
	<line stroke="black" stroke-opacity="1" x1="291" y1="360" x2="301" y2="353" />
</g>
<g>
	<line stroke="black" stroke-opacity="1" x1="714" y1="314" x2="725" y2="293" />
	<line stroke="black" stroke-opacity="1" x1="728" y1="288" x2="719" y2="290" />
	<line stroke="black" stroke-opacity="1" x1="728" y1="288" x2="730" y2="296" />
	<line stroke="black" stroke-opacity="1" x1="719" y1="290" x2="730" y2="296" />
</g>
<g>
	<line stroke="black" stroke-opacity="1" x1="768" y1="314" x2="755" y2="293" />
	<line stroke="black" stroke-opacity="1" x1="753" y1="288" x2="750" y2="296" />
	<line stroke="black" stroke-opacity="1" x1="753" y1="288" x2="761" y2="290" />
	<line stroke="black" stroke-opacity="1" x1="750" y1="296" x2="761" y2="290" />
</g>
</svg>
